<?xml version="1.0" standalone="no"?><!DOCTYPE svg PUBLIC "-//W3C//DTD SVG 1.1//EN" "http://www.w3.org/Graphics/SVG/1.1/DTD/svg11.dtd"><svg t="1652012455149" class="icon" viewBox="0 0 1024 1024" version="1.1" xmlns="http://www.w3.org/2000/svg" p-id="21492" xmlns:xlink="http://www.w3.org/1999/xlink" width="32" height="32"><defs><style type="text/css"></style></defs><path d="M87.466667 469.333333H298.666667v85.333334H173.312A341.504 341.504 0 0 0 469.333333 850.688V421.290667A170.752 170.752 0 0 1 512 85.333333a170.666667 170.666667 0 0 1 42.666667 335.957334v429.397333A341.504 341.504 0 0 0 850.688 554.666667H725.333333v-85.333334h211.2c1.408 14.037333 2.133333 28.288 2.133334 42.666667 0 235.648-191.018667 426.666667-426.666667 426.666667S85.333333 747.648 85.333333 512c0-14.378667 0.725333-28.629333 2.133334-42.666667zM512 341.333333a85.333333 85.333333 0 1 0 0-170.666666 85.333333 85.333333 0 0 0 0 170.666666z" p-id="21493" fill="#bfbfbf"></path></svg>