<?xml version="1.0" standalone="no"?><!DOCTYPE svg PUBLIC "-//W3C//DTD SVG 1.1//EN" "http://www.w3.org/Graphics/SVG/1.1/DTD/svg11.dtd"><svg t="1611735995953" class="icon" viewBox="0 0 1024 1024" version="1.1" xmlns="http://www.w3.org/2000/svg" p-id="2803" xmlns:xlink="http://www.w3.org/1999/xlink" width="200" height="200"><defs><style type="text/css"></style></defs><path d="M458.88 179.456a25.6 25.6 0 0 1 27.7248 34.0992 291.2768 291.2768 0 0 0-17.28 99.3536c0 165.248 134.4 299.52 299.8016 299.52 30.848 0 62.7456-5.0176 92.6464-14.4896a25.6 25.6 0 0 1 32.9728 28.5696C864.2816 811.5968 704.4096 947.2 514.304 947.2 301.0048 947.2 128 774.3744 128 561.2288 128 369.3056 270.464 206.592 458.88 179.456zM179.2 561.2288C179.2 746.0608 329.2672 896 514.304 896c151.296 0 280.32-98.7136 321.0496-238.6944a356.608 356.608 0 0 1-66.2272 6.2976c-193.6896 0-351.0016-157.1584-351.0016-350.6944 0-25.1392 2.7136-50.176 8.064-74.496C283.0848 277.4272 179.2 408.7808 179.2 561.2544z" fill="#bfbfbf" p-id="2804"></path><path d="M715.8528 256A98.816 98.816 0 0 1 665.6 205.7472 98.816 98.816 0 0 1 615.3472 256 98.816 98.816 0 0 1 665.6 306.2528 98.816 98.816 0 0 1 715.8528 256z m-42.1632-87.9616a8.5248 8.5248 0 0 0 0.3328-2.3808v0.9728l-0.3328 1.408z m79.872 96.0512c0.768 0.2304 1.5616 0.3328 2.3808 0.3328h-0.9728l-1.408-0.3328zM633.088 346.368a57.6768 57.6768 0 0 0-57.8048-57.8048 32.5632 32.5632 0 0 1 0-65.0496 57.6768 57.6768 0 0 0 57.8048-57.856 32.5632 32.5632 0 0 1 65.0496 0 57.6768 57.6768 0 0 0 57.856 57.856c17.92 0 32.512 14.592 32.512 32.512 0 17.92-14.592 32.512-32.512 32.512a57.6768 57.6768 0 0 0-57.856 57.856c0 17.92-14.592 32.512-32.512 32.512-17.92 0-32.512-14.592-32.512-32.512zM871.4496 486.4A79.36 79.36 0 0 1 844.8 459.7504 79.36 79.36 0 0 1 818.1504 486.4 79.36 79.36 0 0 1 844.8 513.0496 79.36 79.36 0 0 1 871.4496 486.4z m-15.7184-64.384a11.52 11.52 0 0 0 0.512-3.3792v1.6384l-0.512 1.7408z m53.4528 75.3152a11.52 11.52 0 0 0 3.3792 0.512h-1.6384l-1.7408-0.512z m-93.9008 56.832a38.144 38.144 0 0 0-38.2464-38.2464 29.5424 29.5424 0 0 1 0-59.0336 38.144 38.144 0 0 0 38.2464-38.2464 29.5424 29.5424 0 0 1 59.0336 0 38.144 38.144 0 0 0 38.2464 38.2464 29.5424 29.5424 0 0 1 0 59.0336 38.144 38.144 0 0 0-38.2464 38.2464 29.5424 29.5424 0 0 1-59.0336 0z" fill="#bfbfbf" p-id="2805"></path></svg>