<?xml version="1.0" standalone="no"?><!DOCTYPE svg PUBLIC "-//W3C//DTD SVG 1.1//EN" "http://www.w3.org/Graphics/SVG/1.1/DTD/svg11.dtd"><svg t="1686884603646" class="icon" viewBox="0 0 1024 1024" version="1.1" xmlns="http://www.w3.org/2000/svg" p-id="10400" width="18" height="18" xmlns:xlink="http://www.w3.org/1999/xlink"><path d="M597.333333 213.333333a42.666667 42.666667 0 1 1 0-85.333333h256a42.666667 42.666667 0 0 1 42.666667 42.666667v256a42.666667 42.666667 0 1 1-85.333333 0V273.664l-396.501334 396.501333a42.666667 42.666667 0 0 1-60.330666-60.330666L750.336 213.333333H597.333333zM128 298.666667a85.333333 85.333333 0 0 1 85.333333-85.333334h213.333334a42.666667 42.666667 0 1 1 0 85.333334H213.333333v512h512v-213.333334a42.666667 42.666667 0 1 1 85.333334 0v213.333334a85.333333 85.333333 0 0 1-85.333334 85.333333H213.333333a85.333333 85.333333 0 0 1-85.333333-85.333333V298.666667z" fill="#a5acb9" p-id="10401"></path></svg>