<?xml version="1.0" standalone="no"?><!DOCTYPE svg PUBLIC "-//W3C//DTD SVG 1.1//EN" "http://www.w3.org/Graphics/SVG/1.1/DTD/svg11.dtd"><svg t="1611391508907" class="icon" viewBox="0 0 1024 1024" version="1.1" xmlns="http://www.w3.org/2000/svg" p-id="1111" xmlns:xlink="http://www.w3.org/1999/xlink" width="200" height="200"><defs><style type="text/css"></style></defs><path d="M851.968 503.808 532.48 503.808 532.48 188.416c0-12.288-8.192-20.48-20.48-20.48S491.52 176.128 491.52 188.416l0 319.488L172.032 507.904c-12.288 0-20.48 8.192-20.48 20.48s8.192 20.48 20.48 20.48L491.52 548.864l0 319.488c0 12.288 8.192 20.48 20.48 20.48s20.48-8.192 20.48-20.48l0-319.488 319.488 0c12.288 0 20.48-8.192 20.48-20.48S864.256 503.808 851.968 503.808z" p-id="1112" fill="#606975"></path></svg>