<?xml version="1.0" standalone="no"?><!DOCTYPE svg PUBLIC "-//W3C//DTD SVG 1.1//EN" "http://www.w3.org/Graphics/SVG/1.1/DTD/svg11.dtd"><svg t="1629963451767" class="icon" viewBox="0 0 1024 1024" version="1.1" xmlns="http://www.w3.org/2000/svg" p-id="2105" width="32" height="32" xmlns:xlink="http://www.w3.org/1999/xlink"><defs><style type="text/css"></style></defs><path d="M915.692308 342.646154h-807.384616c-43.323077 0-78.769231 35.446154-78.76923 78.769231v275.692307c0 43.323077 35.446154 78.769231 78.76923 78.769231h116.184616v114.215385c0 43.323077 35.446154 78.769231 78.76923 78.76923h419.446154c43.323077 0 78.769231-35.446154 78.769231-78.76923v-114.215385h116.184615c43.323077 0 78.769231-35.446154 78.769231-78.769231v-275.692307c-1.969231-43.323077-37.415385-78.769231-80.738461-78.769231zM163.446154 545.476923c-33.476923 0-59.076923-25.6-59.076923-59.076923s25.6-59.076923 59.076923-59.076923 59.076923 25.6 59.076923 59.076923-25.6 59.076923-59.076923 59.076923z m543.507692 303.261539c0 15.753846-13.784615 29.538462-29.538461 29.538461h-334.769231c-15.753846 0-29.538462-13.784615-29.538462-29.538461v-192.984616c0-15.753846 13.784615-29.538462 29.538462-29.538461h334.769231c15.753846 0 29.538462 13.784615 29.538461 29.538461v192.984616z m90.584616-630.153847c0 15.753846-13.784615 29.538462-29.538462 29.538462H252.061538c-15.753846 0-29.538462-13.784615-29.538461-29.538462V84.676923c0-15.753846 13.784615-29.538462 29.538461-29.538461H768c15.753846 0 29.538462 13.784615 29.538462 29.538461v133.907692z" p-id="2106" fill="#bfbfbf"></path></svg>