<?xml version="1.0" standalone="no"?><!DOCTYPE svg PUBLIC "-//W3C//DTD SVG 1.1//EN" "http://www.w3.org/Graphics/SVG/1.1/DTD/svg11.dtd"><svg t="1612175062006" class="icon" viewBox="0 0 1024 1024" version="1.1" xmlns="http://www.w3.org/2000/svg" p-id="4711" xmlns:xlink="http://www.w3.org/1999/xlink" width="200" height="200"><defs><style type="text/css"></style></defs><path d="M512 51.2C258.048 51.2 51.2 258.048 51.2 512s206.848 460.8 460.8 460.8 460.8-206.848 460.8-460.8S765.952 51.2 512 51.2z m181.248 612.352c8.192 8.192 8.192 20.48 0 28.672-4.096 4.096-9.216 6.144-14.336 6.144s-10.24-2.048-14.336-6.144L512 540.672 360.448 693.248c-4.096 4.096-9.216 6.144-14.336 6.144s-10.24-2.048-14.336-6.144c-8.192-8.192-8.192-20.48 0-28.672L483.328 512 330.752 360.448c-8.192-8.192-8.192-20.48 0-28.672s20.48-8.192 28.672 0L512 483.328l151.552-151.552c8.192-8.192 20.48-8.192 28.672 0s8.192 20.48 0 28.672L540.672 512l152.576 151.552z" p-id="4712" fill="#d81e06"></path></svg>