<?xml version="1.0" standalone="no"?><!DOCTYPE svg PUBLIC "-//W3C//DTD SVG 1.1//EN" "http://www.w3.org/Graphics/SVG/1.1/DTD/svg11.dtd"><svg t="1631168017703" class="icon" viewBox="0 0 1024 1024" version="1.1" xmlns="http://www.w3.org/2000/svg" p-id="2830" width="32" height="32" xmlns:xlink="http://www.w3.org/1999/xlink"><defs><style type="text/css"></style></defs><path d="M853.333333 213.333333h-388.266666L426.666667 85.333333H170.666667c-46.933333 0-85.333333 38.4-85.333334 85.333334v554.666666c0 46.933333 38.4 85.333333 85.333334 85.333334h298.666666l42.666667 128h341.333333c46.933333 0 85.333333-38.4 85.333334-85.333334V298.666667c0-46.933333-38.4-85.333333-85.333334-85.333334zM307.2 622.933333c-93.866667 0-174.933333-76.8-174.933333-174.933333s76.8-174.933333 174.933333-174.933333c42.666667 0 85.333333 17.066667 115.2 46.933333h4.266667L375.466667 371.2h-4.266667c-12.8-12.8-34.133333-25.6-64-25.6-55.466667 0-102.4 46.933333-102.4 102.4s46.933333 102.4 102.4 102.4c59.733333 0 85.333333-38.4 89.6-64H302.933333V422.4H469.333333v4.266667c0 8.533333 4.266667 17.066667 4.266667 25.6 0 98.133333-68.266667 170.666667-166.4 170.666666z m256-72.533333c12.8 25.6 29.866667 51.2 51.2 72.533333l-21.333333 21.333334-29.866667-93.866667z m34.133333-34.133333h-42.666666l-12.8-42.666667h170.666666s-12.8 55.466667-68.266666 115.2c-21.333333-25.6-38.4-51.2-46.933334-72.533333z m298.666667 337.066666c0 21.333333-21.333333 42.666667-42.666667 42.666667h-298.666666l85.333333-85.333333-34.133333-119.466667 38.4-38.4 115.2 115.2 29.866666-29.866667-115.2-115.2c38.4-42.666667 68.266667-93.866667 81.066667-149.333333H810.666667v-42.666667h-153.6V384h-42.666667v42.666667h-85.333333l-51.2-170.666667H853.333333c21.333333 0 42.666667 17.066667 42.666667 42.666667v554.666666z" p-id="2831" fill="#bfbfbf"></path></svg>