<?xml version="1.0" standalone="no"?><!DOCTYPE svg PUBLIC "-//W3C//DTD SVG 1.1//EN" "http://www.w3.org/Graphics/SVG/1.1/DTD/svg11.dtd"><svg t="1612173307149" class="icon" viewBox="0 0 1024 1024" version="1.1" xmlns="http://www.w3.org/2000/svg" p-id="3633" xmlns:xlink="http://www.w3.org/1999/xlink" width="200" height="200"><defs><style type="text/css"></style></defs><path d="M469.333333 853.333333c-211.2 0-384-172.8-384-384S258.133333 85.333333 469.333333 85.333333s384 172.8 384 384-172.8 384-384 384z m0-682.666666C305.066667 170.666667 170.666667 305.066667 170.666667 469.333333s134.4 298.666667 298.666666 298.666667 298.666667-134.4 298.666667-298.666667S633.6 170.666667 469.333333 170.666667z" p-id="3634" fill="#bfbfbf"></path><path d="M896 938.666667c-10.666667 0-21.333333-4.266667-29.866667-12.8l-185.6-185.6c-17.066667-17.066667-17.066667-42.666667 0-59.733334 17.066667-17.066667 42.666667-17.066667 59.733334 0l185.6 185.6c17.066667 17.066667 17.066667 42.666667 0 59.733334-8.533333 8.533333-19.2 12.8-29.866667 12.8z" p-id="3635" fill="#bfbfbf"></path></svg>