<?xml version="1.0" standalone="no"?><!DOCTYPE svg PUBLIC "-//W3C//DTD SVG 1.1//EN" "http://www.w3.org/Graphics/SVG/1.1/DTD/svg11.dtd"><svg t="1611731449920" class="icon" viewBox="0 0 1024 1024" version="1.1" xmlns="http://www.w3.org/2000/svg" p-id="2525" xmlns:xlink="http://www.w3.org/1999/xlink" width="200" height="200"><defs><style type="text/css"></style></defs><path d="M504.962 328.269q-102.937 102.937-412.627 412.627-6.159 6.159-13.197 6.159-7.038 0-12.317-6.159-6.159-6.159-6.159-12.317 0-6.159 6.159-13.197 144.287-144.287 431.983-431.983 6.159-6.159 13.197-6.159 6.159 0 12.317 6.159 0.88 0.88 1.76 1.76 107.336 107.336 431.103 430.223 6.159 6.159 6.159 12.317 0 7.038-6.159 13.197-6.159 6.159-13.197 6.159-6.159 0-12.317-6.159-138.129-137.249-414.387-412.627-6.159-6.159-12.317 0z" p-id="2526" fill="#8b7000"></path></svg>